<svg width="35" height="30" viewBox="0 0 35 30" fill="none" xmlns="http://www.w3.org/2000/svg">
<mask id="path-1-inside-1_8_6" fill="white">
<path d="M17 32.5V3.7ZM17 32.5L14.3431 29.666C12.8428 28.0657 10.809 27.1667 8.68722 27.1667H1.99826C0.893692 27.1667 0 26.2116 0 25.0333V2.63333C0 1.45512 0.895431 0.5 2 0.5H9.68625C11.808 0.5 13.8428 1.39904 15.3431 2.99936L17 4.76667L18.6569 2.99936C20.1572 1.39904 22.192 0.5 24.3137 0.5H33C34.1045 0.5 35 1.45512 35 2.63333V25.0333C35 26.2116 34.1045 27.1667 33 27.1667H25.3137C23.192 27.1667 21.1572 28.0657 19.6569 29.666L17 32.5Z"/>
</mask>
<path d="M17 32.5V3.7ZM17 32.5L14.3431 29.666C12.8428 28.0657 10.809 27.1667 8.68722 27.1667H1.99826C0.893692 27.1667 0 26.2116 0 25.0333V2.63333C0 1.45512 0.895431 0.5 2 0.5H9.68625C11.808 0.5 13.8428 1.39904 15.3431 2.99936L17 4.76667L18.6569 2.99936C20.1572 1.39904 22.192 0.5 24.3137 0.5H33C34.1045 0.5 35 1.45512 35 2.63333V25.0333C35 26.2116 34.1045 27.1667 33 27.1667H25.3137C23.192 27.1667 21.1572 28.0657 19.6569 29.666L17 32.5Z" fill="white"/>
<path d="M17 32.5L15.541 33.8679C15.9191 34.2712 16.4473 34.5 17.0001 34.5C17.5529 34.5 18.081 34.2712 18.4591 33.8679L17 32.5ZM19 3.7C19 2.59543 18.1046 1.7 17 1.7C15.8955 1.7 15 2.59543 15 3.7H19ZM14.3431 29.666L15.8022 28.2981L15.8022 28.2981L14.3431 29.666ZM15.3431 2.99936L13.884 4.36724L13.8841 4.36727L15.3431 2.99936ZM17 4.76667L15.541 6.13458C15.9191 6.53787 16.4473 6.76668 17.0001 6.76667C17.5529 6.76666 18.081 6.53783 18.4591 6.13453L17 4.76667ZM18.6569 2.99936L17.1978 1.63148L17.1978 1.63149L18.6569 2.99936ZM19.6569 29.666L18.1978 28.2981L18.1978 28.2981L19.6569 29.666ZM19 32.5V3.7H15V32.5H19ZM18.4591 31.1321L15.8022 28.2981L12.8841 31.0339L15.541 33.8679L18.4591 31.1321ZM15.8022 28.2981C13.9384 26.3102 11.3829 25.1667 8.68722 25.1667V29.1667C10.2351 29.1667 11.7472 29.8213 12.8841 31.0339L15.8022 28.2981ZM8.68722 25.1667H1.99826V29.1667H8.68722V25.1667ZM1.99826 25.1667C2.01384 25.1667 2.0308 25.1707 2.04297 25.1762C2.0533 25.1808 2.05234 25.1829 2.0448 25.1748C2.02901 25.158 2 25.1128 2 25.0333H-2C-2 27.1903 -0.332659 29.1667 1.99826 29.1667V25.1667ZM2 25.0333V2.63333H-2V25.0333H2ZM2 2.63333C2 2.55502 2.02862 2.51004 2.04486 2.49272C2.05262 2.48444 2.05391 2.48623 2.044 2.4907C2.03225 2.496 2.01557 2.5 2 2.5V-1.5C-0.328764 -1.5 -2 0.474097 -2 2.63333H2ZM2 2.5H9.68625V-1.5H2V2.5ZM9.68625 2.5C11.2344 2.5 12.7474 3.1548 13.884 4.36724L16.8022 1.63148C14.9383 -0.356721 12.3816 -1.5 9.68625 -1.5V2.5ZM13.8841 4.36727L15.541 6.13458L18.4591 3.39875L16.8022 1.63145L13.8841 4.36727ZM18.4591 6.13453L20.1159 4.36723L17.1978 1.63149L15.541 3.3988L18.4591 6.13453ZM20.1159 4.36724C21.2526 3.1548 22.7656 2.5 24.3137 2.5V-1.5C21.6184 -1.5 19.0617 -0.356721 17.1978 1.63148L20.1159 4.36724ZM24.3137 2.5H33V-1.5H24.3137V2.5ZM33 2.5C32.9844 2.5 32.9677 2.496 32.956 2.4907C32.9461 2.48623 32.9474 2.48445 32.9551 2.49273C32.9714 2.51006 33 2.55504 33 2.63333H37C37 0.474058 35.3287 -1.5 33 -1.5V2.5ZM33 2.63333V25.0333H37V2.63333H33ZM33 25.0333C33 25.1117 32.9714 25.1566 32.9552 25.1739C32.9474 25.1822 32.9461 25.1804 32.956 25.176C32.9678 25.1707 32.9844 25.1667 33 25.1667V29.1667C35.3287 29.1667 37 27.1927 37 25.0333H33ZM33 25.1667H25.3137V29.1667H33V25.1667ZM25.3137 25.1667C22.6184 25.1667 20.0617 26.31 18.1978 28.2981L21.1159 31.0339C22.2526 29.8215 23.7656 29.1667 25.3137 29.1667V25.1667ZM18.1978 28.2981L15.541 31.1321L18.4591 33.8679L21.116 31.0339L18.1978 28.2981Z" fill="url(#paint0_linear_8_6)" mask="url(#path-1-inside-1_8_6)"/>
<defs>
<linearGradient id="paint0_linear_8_6" x1="-11" y1="-7" x2="69" y2="9" gradientUnits="userSpaceOnUse">
<stop stop-color="#400557"/>
<stop offset="1" stop-color="#A164B9"/>
</linearGradient>
</defs>
</svg>
